# xmcd
#
# Track frame offsets: 
#        150
#        19592
#        36201
#        49374
#        69357
#        95459
#        107028
#        126397
#        153306
#        170567
#        182303
#        191536
#        209217
#        222624
#
# Disc length: 3192 seconds
#
# Revision: 2
# Processed by: cddbd v1.5.2PL0 Copyright (c) Steve Scherf et al.
# Submitted via: ExactAudioCopy v1.3
#
DISCID=cd0c760e
DTITLE=Gene Clark - Gene Clark Sings For You
DYEAR=2018
DGENRE=Country Rock
TTITLE0=On Her Own
TTITLE1=Past Tense
TTITLE2=Yesterday, Am I Right
TTITLE3=Past My Door
TTITLE4=That's Alright By Me
TTITLE5=One Way Road
TTITLE6=Down On The Pier
TTITLE7=7:30 Mode
TTITLE8=On Tenth Street
TTITLE9=Understand Me Too
TTITLE10=A Long Time
TTITLE11=Big City Girl
TTITLE12=Doctor Doctor
TTITLE13=Till Today (Demo)
EXTD=
EXTT0=
EXTT1=
EXTT2=
EXTT3=
EXTT4=
EXTT5=
EXTT6=
EXTT7=
EXTT8=
EXTT9=
EXTT10=
EXTT11=
EXTT12=
EXTT13=
PLAYORDER=
